/* XPM */
static char *_0294335cf844043c8ea19411b583d4asYZt5V9teoXNxjae[] = {
/* columns rows colors chars-per-pixel */
"50 50 223 2 ",
"   c None",
".  c #110E0B",
"X  c #14110E",
"o  c #1B150F",
"O  c #161515",
"+  c #191714",
"@  c #1A1917",
"#  c #1D1C1A",
"$  c #161619",
"%  c #0F0D0A",
"&  c #221D1B",
"*  c #271C16",
"=  c #351C1A",
"-  c #291A0F",
";  c #1E201F",
":  c #24211C",
">  c #2B241B",
",  c #2E281C",
"<  c #272216",
"1  c #332B1A",
"2  c #3A2E1B",
"3  c #3A2318",
"4  c #3B321C",
"5  c #36311A",
"6  c #1C1F21",
"7  c #1E2224",
"8  c #1D252A",
"9  c #1E2B35",
"0  c #252422",
"q  c #292621",
"w  c #2B2925",
"e  c #2C2C2B",
"r  c #20292E",
"t  c #322C25",
"y  c #332E2A",
"u  c #352121",
"i  c #35312C",
"p  c #3B3428",
"a  c #212C34",
"s  c #212F39",
"d  c #24333D",
"f  c #2B3236",
"g  c #343433",
"h  c #3B3936",
"j  c #3C3C3B",
"k  c #383835",
"l  c #42201D",
"z  c #4A3C1D",
"x  c #44371C",
"c  c #4F3D0F",
"v  c #562422",
"b  c #463A28",
"n  c #433B32",
"m  c #463F37",
"M  c #4C2523",
"N  c #772926",
"B  c #3C443E",
"V  c #59491C",
"C  c #4C431C",
"Z  c #69571C",
"A  c #755A1D",
"S  c #704D10",
"D  c #5C4A24",
"F  c #574623",
"G  c #494338",
"H  c #574939",
"J  c #584F32",
"K  c #6A5526",
"L  c #775C27",
"P  c #6A5A34",
"I  c #7C622A",
"U  c #746724",
"Y  c #253C4C",
"T  c #263945",
"R  c #303F4B",
"E  c #2B4354",
"W  c #2A465A",
"Q  c #394E52",
"!  c #2C4C63",
"~  c #34546C",
"^  c #345973",
"/  c #355A73",
"(  c #2E5773",
")  c #39617C",
"_  c #434343",
"`  c #4B4B4C",
"'  c #494844",
"]  c #534C47",
"[  c #485656",
"{  c #535354",
"}  c #5B5B5B",
"|  c #575857",
" . c #525050",
".. c #645340",
"X. c #6B5944",
"o. c #625F5D",
"O. c #795045",
"+. c #79644C",
"@. c #65695D",
"#. c #767456",
"$. c #5D5E61",
"%. c #496876",
"&. c #58747A",
"*. c #58676D",
"=. c #656768",
"-. c #67766D",
";. c #777963",
":. c #687473",
">. c #76787A",
",. c #6C6E71",
"<. c #882C28",
"1. c #9C2F2B",
"2. c #95302B",
"3. c #923232",
"4. c #A92E2C",
"5. c #B73031",
"6. c #896A1E",
"7. c #845C23",
"8. c #886829",
"9. c #887225",
"0. c #94722D",
"q. c #9B792A",
"w. c #967632",
"e. c #8B6F34",
"r. c #A37B2E",
"t. c #A67E30",
"y. c #A0630B",
"u. c #CA7D10",
"i. c #836B51",
"p. c #897657",
"a. c #9B7E5D",
"s. c #92785A",
"d. c #83714D",
"f. c #837E7A",
"g. c #907F74",
"h. c #AC4747",
"j. c #C74748",
"k. c #74846E",
"l. c #A0801F",
"z. c #AB8331",
"x. c #AC893A",
"c. c #A78539",
"v. c #B58B33",
"b. c #B88D32",
"n. c #B18D27",
"m. c #D6B41A",
"M. c #C79629",
"N. c #D29F23",
"B. c #D8A529",
"V. c #D3AF35",
"C. c #ECB52A",
"Z. c #F6BA25",
"A. c #F8BB23",
"S. c #F2B928",
"D. c #E2B02E",
"F. c #E7BF1B",
"G. c #EAC628",
"H. c #F8C725",
"J. c #FFD824",
"K. c #E9C01B",
"L. c #978448",
"P. c #958759",
"I. c #A38741",
"U. c #A59853",
"Y. c #B6A759",
"T. c #8D8B72",
"R. c #AC8C69",
"E. c #A58664",
"W. c #B4936E",
"Q. c #BA976F",
"!. c #BC9972",
"~. c #B08F6A",
"^. c #A2A26A",
"/. c #9EA16D",
"(. c #CDB049",
"). c #C19D74",
"_. c #CDA67A",
"`. c #C9A377",
"'. c #D5AC7E",
"]. c #D8AE7F",
"[. c #3A6584",
"{. c #3D6C8E",
"}. c #34668A",
"|. c #3C6D91",
" X c #3A739C",
".X c #3C7BA7",
"XX c #3A7FB1",
"oX c #446E8A",
"OX c #486F86",
"+X c #4A7186",
"@X c #537785",
"#X c #7B7D82",
"$X c #427CA3",
"%X c #3C83B4",
"&X c #3C86BA",
"*X c #3E80AE",
"=X c #7F8187",
"-X c #7B8685",
";X c #7B9788",
":X c #6B9498",
">X c #608081",
",X c #4A88AA",
"<X c #4489B6",
"1X c #5190B0",
"2X c #4799CB",
"3X c #888789",
"4X c #96928D",
"5X c #9A9793",
"6X c #918C89",
"7X c #A39E9B",
"8X c #95B68F",
"9X c #A6A29D",
"0X c #B7B2AC",
"qX c #AEA9A4",
"wX c #EB8081",
"eX c #D8AF80",
"rX c #DAB081",
"tX c #C2BFB8",
"yX c #C9C3BD",
"uX c #D8D2CB",
"iX c #DCD8D1",
"pX c #D1CEC7",
"aX c #FFFEF5",
/* pixels */
"                              @ + + + O # $ O + o                                                   ",
"                      $ @ # : r d E Q 9.9.9.U Q T r ; + @                                           ",
"                  @ # 1 D I e.+X%X&X<X(.H.H.H.8X2X1X,X@.C < @                                       ",
"                @ @ C z.v.v.v.k. X&X&X;XS.Z.Z.Y.<X2X2X8XJ.n.4 $                                     ",
"              @ d T : I v.v.v.c.&..X&X,X(.A.A.D.1X&X&X:XG.J.l.$ #                                   ",
"            @ d [.{.E < 0.v.v.v.;.|..X&X/.A.A.Z.;X&X&X,X(.J.m.; @ @                                 ",
"          $ a ) {.|.[.a C z.v.v.I.+X|.%X:XS.A.A.^.&X&X<XY.J.m.5 @ @                                 ",
"          0 | oX{.{.{.~ 7 8.v.v.v.:.{. X,XV.A.A.(.&X&X&X/.H.G.C $ @ @                               ",
"        # K x.L.%.{.{.{.d x z.v.v.p.{.{..XY.A.A.V.1X&X&XT.H.H.V $ $ $                               ",
"      $ 4 z.b.z.| {.[.) ~ : 0.v.v.L.OX{.|./.A.Z.V.@XXX&X:XZ.H.Z 8 7 8 @                             ",
"      # H L.x.q.H {.) ~ {.9 D z.v.v.&.{.|.k.D.6.2 6 T  X:XS.H.Z 9 8 Y 6                             ",
"    @ 8 [.oX&.[ J &.~ [.{.E 1 c.v.v.-.|.|.@XL * M N = 9 >XC.G.U T 9 W 9                             ",
"    @ E {.{.|.! D #.E ) {./ : 8.v.v.P.}.{.^ # v 4.5.h.l ' C.H.Z Y T W Y +                           ",
"    ; / +X+XoXW C L.) }.{.{.a D v.v.L.) ^ E = <.4.5.wXP 5 D.H.Z E Y Y }.#                           ",
"  $ b I.c.c.L.P C c.&.|.{.{.E 4 z.0.P d a 7 l 2.4.5.j.2.- q.B.V W Y G ;.:                           ",
"  @ K b.v.v.b.I t z.P.}.{.{.W : , : : 5 l q l <.1.5.4.<.@ < 5 < W Y Z D.4                           ",
"  < 9.b.v.v.v.e., q.x.&.[.E 6 = C L 0.q.t.K * N 1.1.1.v 1 6.L 4 r 7 A S.z +                         ",
"  w d.;.-.@.-.@.w I b.+.d : F 0.t.z.t.t.t.0.3 l <.2.N * L N.F.m.V + A C.V O                         ",
"@ s {.{.) E E ^ d F r.p , I r.r.t.0.L D b x * O = l & & Z n.m.K.M.D : k.B +                         ",
"@ T {.{.{.{.Q f s , 4 , 8.0.x b z > q u u y i b p i i t > < V l.M.Z 9 .XY +                         ",
"@ E {.oX&.P.c.q.4 O @ I t.D o.7X{ : b p.R.W.W.Q.W.W.W.R.s.n @ t Z , ! &XT +                         ",
"@ E oX;.e.L c.c.z.z @ I q.x 7XiXuXqXo.n i.).).~._.Q.Q.a.G ' 4X4X# 8  X%Xs @                         ",
"@ ; ' z.8.I 0.P L.L.> 5 b & 5X7Xf.9XtX7X .n b y p.n p n f.0X0X5X# K Y.[ @                           ",
"  @ # D c.c.;.) {.,X! @ # q } m _ h ' >.7X5X4X_ i.m 3X6Xf.' h | z N.N.1                             ",
"      # D -.|.{.{. X.Xa : ..: o.uX0X,.& q ' | G W.n _ n g w k & U H.6.$                             ",
"        # W {.|.{.|.%X( : s.+.' iXaXiX| =.o.> E.eXa.t 7XtX| 0 $ ) -Xt                               ",
"        + ; ( +X:.;.U.U., +.W.X.' 9XpXtX4Xn i.].eX_.m o.7X] n q }.}.#                               ",
"          + f L.v.n.B.C.C H !._.d.G y q : X._.eXeXeXa.> @ ..a.q &.Q +                               ",
"            : 8.v.v.M.Z.6.t E.'.a.P n H a.'.].eXeXeXeXR.+.i.p., n.V +                   . X + # + X ",
"            $ F v.c.P.Y.P.0 p._.'.).).'.eX].'.).!._.eXeX].].i.2 M.5               . & j _ | o.| e . ",
"              > =.+XoX$X.X7 +.W._.eXeXeX].].E.H H a.eXeXeX_.m G L.#             @ _ 6X5X=.| | j @   ",
"              @ ! |.|..XXXs H R.W.).'.eX].].W.!.'.eXrXrX).P 0 [.[.#         . k ,.| _ e + r k & .   ",
"              @ Y {.{..X%Xd : H i.a.W.).eX`._.E.p.s.~.s.n 0 ( &X^ @       + j | g 0 g w # f 0 X     ",
"              @ a ^ ~ ( ! r w 0 & u m O.+.p...0 6 6 q & + s W Y 9 @     # m g 0 g R f & g w X       ",
"                # # # # + + k | _ + & 7 7 6 # d |./ $ $ # @ + + #     # g 0 e f j w g _ q O         ",
"                        q | _ j o.R e ` { ` e k P.d.& @   . X     . q k 0 k R e & ' o.w .           ",
"                      @ =.tX0Xy } $.R e R { g t T.#.: w o A c % @ q e 0 g f q k k j #               ",
"                      w f.uXyXh { =.#X=._ 0 # 6 ( W w @.@ S c $ e 6 # ; & # g m @ %                 ",
"                    +  .f.iXyXm { =.=X=X#Xy u = 6 ; : } < i ' k # & @ # : + O .                     ",
"                    : 6X4X0X5Xk { #X=X#X#Xy M v 7 $.` ; 0 G T.#.w @ # + .                           ",
"                    :  .f.T.5Xe _ #X#X#X#X` 6 & _ =X} 0 r u ] m : @ X                               ",
"                  @ q 0 0 e e 0 f _ >.#X#X>.$.$.#X3X,.# @ * p y > +                                 ",
"                  # e g g g 0 g $.` k  .$.#X#X#X#X=.,.0 @ @ # & D 2 .                               ",
"                  # 0 e y j e g $.#X>.} [ $.=.{ Q } #Xw       + - o                                 ",
"                    # q e j w g $.>.=X=X,. .` | $.$.| 0                                             ",
"                      # # ; # > t k j _ _ m R k y q +                                               ",
"                            # S y.7.> O O @ # @ & 0 #                                               ",
"                            O S u.7.&   # & * & * 3 >                                               ",
"                              2 A 2     # * * - = l < +                                             ",
"                              O & X       # & & 6 #                                                 "
};
