/* XPM */
static char *c79b437a6acf43e3c0fb79adf011f784TMhWhj8JlrePdBZC[] = {
/* columns rows colors chars-per-pixel */
"50 50 2 1 ",
"  c None",
". c red",
/* pixels */
"                                                  ",
"                                                  ",
"                                                  ",
"                                                  ",
"                                                  ",
"                                                  ",
"                                                  ",
"                                                  ",
"                                                  ",
"                                                  ",
"                                                  ",
"                                                  ",
"                                                  ",
"                                                  ",
"                                    .             ",
"                                  ....            ",
"             ....                .....            ",
"             .....              ......            ",
"             ......            .....              ",
"              ......         ......               ",
"                ......      ......                ",
"                 ......    ......                 ",
"                  ......  ......                  ",
"                   ...........                    ",
"                     ........                     ",
"                      ......                      ",
"                     ........                     ",
"                    ..........                    ",
"                   .....  ......                  ",
"                 ......    ......                 ",
"                ......      ......                ",
"               ......        ......               ",
"              ......          ......              ",
"             .....              .....             ",
"            .....                ....             ",
"            ....                  ..              ",
"             ..                                   ",
"                                                  ",
"                                                  ",
"                                                  ",
"                                                  ",
"                                                  ",
"                                                  ",
"                                                  ",
"                                                  ",
"                                                  ",
"                                                  ",
"                                                  ",
"                                                  ",
"                                                  "
};
