/* XPM */
static char *a65684c4edec4d47a3d83408eea9b962T7sD5C2J3P5EY6ay[] = {
/* columns rows colors chars-per-pixel */
"50 50 197 2 ",
"   c None",
".  c #0F0E0D",
"X  c #10100F",
"o  c #151413",
"O  c #181715",
"+  c #191917",
"@  c #1D1C1A",
"#  c #211E1B",
"$  c #2A1B18",
"%  c #351D19",
"&  c #24211E",
"*  c #2C231F",
"=  c #2F281B",
"-  c #372F1F",
";  c #252321",
":  c #2A2621",
">  c #2C2924",
",  c #2D2C2A",
"<  c #322C26",
"1  c #332E29",
"2  c #382923",
"3  c #36312B",
"4  c #3B342C",
"5  c #3B3B2B",
"6  c #363525",
"7  c #2F3131",
"8  c #343332",
"9  c #393634",
"0  c #3C3A35",
"q  c #3D3B39",
"w  c #373A3B",
"e  c #4B1C1B",
"r  c #7A1D1B",
"t  c #48391C",
"y  c #63211B",
"u  c #482C26",
"i  c #41372F",
"p  c #43392F",
"a  c #423721",
"s  c #5B362C",
"d  c #453C32",
"f  c #493E34",
"g  c #413E3C",
"h  c #572D26",
"j  c #652A25",
"k  c #61372E",
"l  c #79342C",
"z  c #693B30",
"x  c #753C32",
"c  c #7A2D27",
"v  c #3E412C",
"b  c #3F4431",
"n  c #4D4236",
"m  c #464B31",
"M  c #494E32",
"N  c #44413E",
"B  c #4E4339",
"V  c #534436",
"C  c #534639",
"Z  c #56493C",
"A  c #5A4B3D",
"S  c #4C5235",
"D  c #515738",
"F  c #5B4827",
"G  c #695121",
"H  c #614F3E",
"J  c #724C3C",
"K  c #5E653E",
"L  c #7F6127",
"P  c #464341",
"I  c #4A4644",
"U  c #4D4945",
"Y  c #454849",
"T  c #4E4A48",
"R  c #5E4F40",
"E  c #524E4B",
"W  c #5D5143",
"Q  c #55514F",
"!  c #5A5447",
"~  c #4E5153",
"^  c #595553",
"/  c #585959",
"(  c #625142",
")  c #6A5643",
"_  c #6F5A46",
"`  c #6E5C48",
"'  c #625B4D",
"]  c #735E49",
"[  c #715946",
"{  c #615C5A",
"}  c #645F52",
"|  c #616A41",
" . c #67604F",
".. c #77604B",
"X. c #7D644E",
"o. c #65615E",
"O. c #7B6951",
"+. c #756E5A",
"@. c #6D7648",
"#. c #5B5F61",
"$. c #656261",
"%. c #6A6562",
"&. c #6F6967",
"*. c #6A6B6B",
"=. c #64686A",
"-. c #736D6B",
";. c #76716F",
":. c #797268",
">. c #656E72",
",. c #6F7274",
"<. c #76787A",
"1. c #787777",
"2. c #851E1E",
"3. c #85201F",
"4. c #852522",
"5. c #852A26",
"6. c #852E29",
"7. c #84322B",
"8. c #84382F",
"9. c #843C32",
"0. c #943A31",
"q. c #844236",
"w. c #844B3C",
"e. c #844639",
"r. c #8F6B22",
"t. c #845342",
"y. c #845946",
"u. c #835D49",
"i. c #8C5E49",
"p. c #83614B",
"a. c #83654E",
"s. c #83644D",
"d. c #8A664F",
"f. c #826750",
"g. c #836951",
"h. c #836850",
"j. c #836A52",
"k. c #836A51",
"l. c #846A52",
"z. c #846951",
"x. c #836A51",
"c. c #896D54",
"v. c #8C7459",
"b. c #927B5E",
"n. c #966E56",
"m. c #967E60",
"M. c #847D7B",
"N. c #807A77",
"B. c #8E866D",
"V. c #948062",
"C. c #89827F",
"Z. c #968D75",
"A. c #A58D6B",
"S. c #AD9571",
"D. c #A4987D",
"F. c #787E83",
"G. c #8C8582",
"H. c #888585",
"J. c #908986",
"K. c #938C89",
"L. c #98918E",
"P. c #989696",
"I. c #87939C",
"U. c #A89D80",
"Y. c #A59E9A",
"T. c #A19996",
"R. c #ABA081",
"E. c #B7AB8C",
"W. c #8F9CA5",
"Q. c #969BA0",
"!. c #9BA4AB",
"~. c #9BAAB4",
"^. c #A1A6AB",
"/. c #A6AFB6",
"(. c #A3B3BE",
"). c #B2ABAA",
"_. c #C6B996",
"`. c #D0C29E",
"'. c #D9CAA3",
"]. c #EBDCB0",
"[. c #F8E8B9",
"{. c #A6B6C0",
"}. c #ACBAC4",
"|. c #B4BFC7",
" X c #BCC0C4",
".X c #BBC5CD",
"XX c #B4C0C8",
"oX c #BCC7D0",
"OX c #C3CCD3",
"+X c #C8CFD5",
"@X c #CCD3DA",
"#X c #CBD2D7",
"$X c #D3D8DE",
"%X c #D2D9E0",
"&X c #DDE2E7",
"*X c #E5EAEE",
"=X c #E5E8EB",
/* pixels */
"                                                      O + O + + O + + O                             ",
"                                                + + # $ * % % 2 < % $ # + + +                       ",
"                                            O @ * e j J l r l [ z y h C d < # +                     ",
"                                          + > A x 5.t.w.2.6.u.y.4.c ) ( ( ( V 1 @ +                 ",
"                                        + 5 j.i.5.e.p.5.2.t.z.9.2.t.X.] ( A R R d & +               ",
"                                      + d m.v.8.7.a.w.2.8.a.p.5.6.f.g.g.] U C f R V & O             ",
"                                    O 3 m.A.p.5.w.l.8.3.t.l.t.4.e.l.g.g.a.) R C R ( f @ +           ",
"                                    # O.S.A.t.6.a.a.6.7.a.z.e.4.y.l.g.l.l.] ( W ( ( R 4 +           ",
"                                  O d A.S.b.q.q.z.u.4.q.l.k.q.7.f.f.z.g.g.X.) R ( R ( Z & +         ",
"                                  @ ` A.V.l.9.w.l.u.5.t.j.k.9.q.g.g.g.g.z.g.` ( ( ( ( ( 4 +         ",
"                                  & v.b.z.a.q.u.l.u.6.u.l.l.q.w.l.g.g.g.g.g.] R ( ( ( ( C #         ",
"                                + 3 V.c.z.a.e.a.j.u.8.a.k.l.e.y.l.g.g.g.g.g.X.( R ( ( ( ( : +       ",
"                                O n b.g.g.a.t.a.z.p.e.a.k.z.t.p.g.g.g.g.l.l...( ( ( ( R ( 4 O       ",
"                                O n v.g.g.g.a.k.g.k.y.g.k.k.a.k.g.g.g.g.l.l...( ( R R ( ( d @       ",
"                                + C v.j.g.g.g.g.g.g.a.g.z.z.k.k.l.g.z.z.l.l.] ( R B B ( ( f @       ",
"                                O n c.j.z.g.g.g.g.g.g.g.z.a.k.k.f.z.f.) Z ) ] ( ( R R ( ( n #       ",
"                                O 5 A n ) k.l.g.g.g.k.k.k.z.z.z...( p : : > A ( V A ( ( A 4 # @ +   ",
"                                + & & > : p _ g.j.g.k.k.k.z.a.H 4 ; 6 d C > i ( f Z ( R i 4 f d &   ",
"                                  + : n d > > n V A ] V Z H 4 : 3 n B n f 1 3 ( R R ( C f f > i 1 + ",
"                                  + ; 4 3 d 4 : & * V & * & 3 d d 3 ; : 8 > 3 ( ( ( ( A V : 1 < 4 @ ",
"                                  + @ & : & : 3 4 : A = 4 0 4 : ; 9 ! W ; # i ( ( ( ( ( 3 * < < 1 + ",
"                                  + + & 0 , U 4 # 6 ] p & : ; @ ! E.'.`.4 < A ( ( R ( C < 4 * < < @ ",
"                                  + @ @ ,  .`.D.< ( l...> ! :.9 Z.[.[.U.3 A ( ( R Z ( d i f > i : O ",
"                                  + & p < B.'.+.4 a.k.k.Z d D._.].[.E.d Z ] ( ( 9 f ( i f f 3 i #   ",
"  +                                 > O.A 4 5 4 _ z.k.a.X.n 4  .+.! 4 V X...H 5 4 R A d d 3 d > O   ",
"# w #                               > O.z.] ) ..z.z.k.O.z.g.) V f V _ a.z.] 4 < Z ( ( Z f A i +     ",
"; H.<., O                           : j.l.l.j.k.a.a.p.X...g.g.g.g.z.z.z.k.V 1 A ( ( ( W A V &       ",
"+ F.@XW.Y ; O                       & g.d.t.e.8.7.j h u h q.t.p.g.g.g.z.] 4 A ( ( Z C 4 d * +       ",
"  / OX@X/.F.~ 7 #                   @ x 0.6.6.7.8.x s k l 6.6.7.q.y.a.z._ V ( ( A 4 # # #           ",
"  , !.@X.X(.~.W.#.@                 + a n.d.a.k.g.z.l.k.k.a.p.u.t.t.y.a.] A ( A 3 @ O # @           ",
"  + #.oX@X}.(.(.~.#.@                 @ Z V.v.z.X.....a.z.g.z.z.g.g.z.a.] R d : @ O I C.N           ",
"    @ F.OX@X|.(.{.|.$.@                 @ p O.] 4 : : 4 ) z.z.z.z.f...( f : @ O   O $.).{ +         ",
"      ; ,..X@X.X{.+X#X#.#                 + & ; & 1 > @ > ) ] ) A d < & @ @ @       , E 1           ",
"        @ ~ ^.#XOX+X=X|.=.:                 + + 1 d < ; + & * & & & @ + + @ # @       O             ",
"          O 8 F.|.%X*X%XXXP.9 O               + ; 1 > ; + @ 4 p p < & < & V A < +                   ",
"              @ Y P.=X*X+X%X!.Y @             + & > : @ 4 I 2 < < 4 n V > ] ..Z &                   ",
"                  : *. X%X*X@X~.>.8 + O +     + @ > * @ 1.P.^ 4 ] ..( B < ..X.A >                   ",
"                    o 8 >. X&X.X{.I.w t t @ @ 9 # @ O 9 Y.;.^ n k.X.) n * A Z < ; @                 ",
"                        + 9 <./.OX~.0 r.G @ @ N 4 ( : ^ Y.&.4 ( k.a.( V & 9 U E Q >                 ",
"                            + 8 *./ a L = @ & # > ) p , 9 < n ] [ ] A d 1 J.Y.;.q @                 ",
"                                + & F - & & & , / P 8 ; & ; 1 4 3 3 , > & 9 9 9 T P @               ",
"                                  # - @ + @ + 3 Y.Y.L.J.G.G.G.G.K.L.J.$., { %.&.-.{ ;               ",
"                                    +     @ + @ U -.M.M.M.G.H.G.G.C.;.Q 1 J.1.{ ^ I @               ",
"                                              & 5 6 4 q N P g b q 9 8 : : L.K.&.q #                 ",
"                                              & 6 M K D S M m S M S S b > 9 q , @ +                 ",
"                                            @ + O & 5 5 K S v | @.| D 6 # + +                       ",
"                                                & T / b > # O : m = & 8 T , +                       ",
"                                                # Q $.P ; ; X o : ^ / / $.9 X                       ",
"                                                O O @ ; @ +   . ; E ^ I 9 ; .                       ",
"                                                                X X . o X                           "
};
