/* XPM */
static char *b5f644a4e5cd4e25e52035b4db8de41aeAuaFeybR5QXKcvB[] = {
/* columns rows colors chars-per-pixel */
"50 50 197 2 ",
"   c None",
".  c #0F0E0D",
"X  c #10100F",
"o  c #151413",
"O  c #181715",
"+  c #191917",
"@  c #1D1C1A",
"#  c #211E1B",
"$  c #2A1B18",
"%  c #351D19",
"&  c #24211E",
"*  c #2C231F",
"=  c #2F281B",
"-  c #372F1F",
";  c #252321",
":  c #2A2621",
">  c #2C2924",
",  c #2D2C2A",
"<  c #322C26",
"1  c #332E29",
"2  c #382923",
"3  c #36312B",
"4  c #3B342C",
"5  c #3B3B2B",
"6  c #363525",
"7  c #2F3131",
"8  c #343332",
"9  c #393634",
"0  c #3C3A35",
"q  c #3D3B39",
"w  c #373A3B",
"e  c #4B1C1B",
"r  c #7A1D1B",
"t  c #48391C",
"y  c #63211B",
"u  c #482C26",
"i  c #41372F",
"p  c #43392F",
"a  c #423721",
"s  c #5B362C",
"d  c #453C32",
"f  c #493E34",
"g  c #413E3C",
"h  c #572D26",
"j  c #652A25",
"k  c #61372E",
"l  c #79342C",
"z  c #693B30",
"x  c #753C32",
"c  c #7A2D27",
"v  c #3E412C",
"b  c #3F4431",
"n  c #4D4236",
"m  c #464B31",
"M  c #494E32",
"N  c #44413E",
"B  c #4E4339",
"V  c #534436",
"C  c #534639",
"Z  c #56493C",
"A  c #5A4B3D",
"S  c #4C5235",
"D  c #515738",
"F  c #5B4827",
"G  c #695121",
"H  c #614F3E",
"J  c #724C3C",
"K  c #5E653E",
"L  c #7F6127",
"P  c #464341",
"I  c #4A4644",
"U  c #4D4945",
"Y  c #454849",
"T  c #4E4A48",
"R  c #5E4F40",
"E  c #524E4B",
"W  c #5D5143",
"Q  c #55514F",
"!  c #5A5447",
"~  c #4E5153",
"^  c #595553",
"/  c #585959",
"(  c #625142",
")  c #6A5643",
"_  c #6F5A46",
"`  c #6E5C48",
"'  c #625B4D",
"]  c #735E49",
"[  c #715946",
"{  c #615C5A",
"}  c #645F52",
"|  c #616A41",
" . c #67604F",
".. c #77604B",
"X. c #7D644E",
"o. c #65615E",
"O. c #7B6951",
"+. c #756E5A",
"@. c #6D7648",
"#. c #5B5F61",
"$. c #656261",
"%. c #6A6562",
"&. c #6F6967",
"*. c #6A6B6B",
"=. c #64686A",
"-. c #736D6B",
";. c #76716F",
":. c #797268",
">. c #656E72",
",. c #6F7274",
"<. c #76787A",
"1. c #787777",
"2. c #851E1E",
"3. c #85201F",
"4. c #852522",
"5. c #852A26",
"6. c #852E29",
"7. c #84322B",
"8. c #84382F",
"9. c #843C32",
"0. c #943A31",
"q. c #844236",
"w. c #844B3C",
"e. c #844639",
"r. c #8F6B22",
"t. c #845342",
"y. c #845946",
"u. c #835D49",
"i. c #8C5E49",
"p. c #83614B",
"a. c #83654E",
"s. c #83644D",
"d. c #8A664F",
"f. c #826750",
"g. c #836951",
"h. c #836850",
"j. c #836A52",
"k. c #836A51",
"l. c #846A52",
"z. c #846951",
"x. c #836A51",
"c. c #896D54",
"v. c #8C7459",
"b. c #927B5E",
"n. c #966E56",
"m. c #967E60",
"M. c #847D7B",
"N. c #807A77",
"B. c #8E866D",
"V. c #948062",
"C. c #89827F",
"Z. c #968D75",
"A. c #A58D6B",
"S. c #AD9571",
"D. c #A4987D",
"F. c #787E83",
"G. c #8C8582",
"H. c #888585",
"J. c #908986",
"K. c #938C89",
"L. c #98918E",
"P. c #989696",
"I. c #87939C",
"U. c #A89D80",
"Y. c #A59E9A",
"T. c #A19996",
"R. c #ABA081",
"E. c #B7AB8C",
"W. c #8F9CA5",
"Q. c #969BA0",
"!. c #9BA4AB",
"~. c #9BAAB4",
"^. c #A1A6AB",
"/. c #A6AFB6",
"(. c #A3B3BE",
"). c #B2ABAA",
"_. c #C6B996",
"`. c #D0C29E",
"'. c #D9CAA3",
"]. c #EBDCB0",
"[. c #F8E8B9",
"{. c #A6B6C0",
"}. c #ACBAC4",
"|. c #B4BFC7",
" X c #BCC0C4",
".X c #BBC5CD",
"XX c #B4C0C8",
"oX c #BCC7D0",
"OX c #C3CCD3",
"+X c #C8CFD5",
"@X c #CCD3DA",
"#X c #CBD2D7",
"$X c #D3D8DE",
"%X c #D2D9E0",
"&X c #DDE2E7",
"*X c #E5EAEE",
"=X c #E5E8EB",
/* pixels */
"                            + + + O + + O O O                                                       ",
"                      + + + # $ % < 2 % % * $ @ + +                                                 ",
"                    + # < d C h y z [ l r l J j e > # O                                             ",
"                + @ 1 C R ( ) ) c 4.y.u.6.2.w.t.4.x A * +                                           ",
"              + # f R R R ( ] h.t.2.9.h.t.4.5.p.w.4.d.j.i +                                         ",
"            + & B R f C C ` f.l.p.6.5.p.f.8.2.w.s.6.8.v.b.d @                                       ",
"          O @ f ( R B R ) O.l.f.h.e.4.t.h.t.3.9.z.w.5.p.A.V.3 +                                     ",
"          + 4 ( ( ( W ) ] h.f.l.h.u.4.e.h.f.6.6.s.s.7.w.A.S.O.#                                     ",
"        + & Z ( ( ( ( ) f.f.j.f.z.s.6.q.k.j.e.4.p.z.e.q.b.S.A.p +                                   ",
"        + 4 ( ( ( ( R ` f.l.f.l.h.z.q.q.k.l.w.5.y.l.w.8.l.V.A.` @                                   ",
"        # C ( ( ( ( ( ] l.f.l.f.z.h.w.q.k.l.p.6.y.l.u.q.a.k.b.v.&                                   ",
"      + : R ( R ( ( ( ] f.l.f.l.l.h.y.w.h.j.s.9.p.l.s.w.a.l.c.V.3 O                                 ",
"      + 4 ( ( ( ( ( ( X.j.j.j.f.h.h.p.y.l.h.h.e.p.k.h.t.z.z.l.b.d +                                 ",
"      + d ( ( R R ( ( ..j.j.j.f.h.l.h.s.h.h.z.y.z.h.z.s.h.h.z.b.n O                                 ",
"      @ f ( ( B C R ( ..j.l.l.j.l.h.z.h.h.l.h.z.h.h.j.h.j.h.h.v.C +                                 ",
"      @ n ( ( R R R ( ] ) Z ) f.l.h.z.h.h.z.h.h.h.z.h.l.h.l.h.c.n O                                 ",
"  + # # 4 R ( ( Z C ( A > ; * 4 H a.l.h.z.z.z.h.h.l.h.l.h.) n A 0 O                                 ",
"  # d f 4 4 R ( Z n ( i > B n 3 : 4 H X.l.l.z.z.z.k.h.` p > > & ; +                                 ",
"+ 1 p : f f C ( ( R W 1 3 n n B n 1 : i A C V [ Z C V : > d n * +                                   ",
"@ 4 < 1 : C Z ( ( ( W 3 > 3 : , 3 d d 1 * * * V * & * 5 0 4 4 & +                                   ",
"+ 4 > 2 * 4 R ( ( ( ( i & * ! ! 5 ; > 3 0 5 < Z : 3 3 : & : & @ +                                   ",
"+ 1 1 : 4 1 C ( R ( ( A > 4 _.'.E.! @ ; > # p ] 3 & 3 Z , 0 & @ +                                   ",
"+ > i : f p d ( C R ( ( A 4 D.[.[.Z.8 :.' > ] l.( 1 D.`. ., + + +                                   ",
"  @ i 2 f f p W B 4 R ( ` Z n E.[.].E.R.d C l.f.X.5 +.'.B.< d & +                                   ",
"  + : f 4 d d A H 4 4 H ] a.V 4 W +. .5 V X.h.h.l.[ 4 5 4 A X.<                                 O   ",
"    @ 4 Z f C ( ( Z 1 4 ..h.h._ V f n ) X.l.h.h.h.z...) ] l.h.:                               # w # ",
"      & V A ( ( ( ( Z 1 C l.l.l.l.h.h.j.h.X...a.a.a.z.l.l.c.j.:                           O , ,.H.; ",
"      + : d p B Z ( ( Z 4 ] l.h.h.l.p.t.q.h u h j 7.8.e.w.c.O.&                       o ; Y Q.@XF.+ ",
"          # @ & 4 H ( ( n [ l.a.y.e.8.6.7.l k s x 8.7.7.7.0.x @                   @ 7 ~ F.~.@X+X/   ",
"          + @ + @ 3 Z ( W ..a.y.w.t.y.p.a.a.a.c.l.h.h.a.c.n.u o                 # #.W.~.{.oX%X!.,   ",
"          N H.I + + * p A ..h.h.j.h.h.l.z.l.X.....X.j.v.V.Z @                 + #.~.{.(.}.@XOX/ O   ",
"        O { ).$.+   + @ > d H ..h.l.l.l.l.) 5 * * 4 ` O.p @                 + =.XX{.(.|.+X+X<.&     ",
"          1 E ,       @ @ @ & < f A J ..) = @ > 3 & & & +                 + #.#X+X{.oX@X.X,.;       ",
"            O       @ & # O O @ # # & * & + ; 1 0 1 + +                 , =.XX*XOXOX@X^.~ #         ",
"                  + 1 Z V & < # < p f 2 @ + & > , : +               O 8 P.XX@X=X%XXX<.8 O           ",
"                  ; C ] [ > C V i < < 3 I 8 & & < & +             @ Y !.&X+X*X=XP.Y @               ",
"                  > W X...< V ( ..] 4 ^ P.1.# ; : # +     + O + 8 >.~.+X*X%X X*.;                   ",
"                @ ; 2 C Z * n ) X.l.f ^ ;.Y.9 + + & 0 # @ t t w I.{.oX&X X*.8 O                     ",
"                > Q E I 9 ; B ) X.l.( 4 &.T.^ : ( 5 N @ + G r.0 ~.OX/.1.0 +                         ",
"                # q ;.Y.J.1 d Z ] [ ] n 1 0 > d ) > @ & @ = L a / *.8 O                             ",
"              @ P I 9 9 9 # > 1 3 3 4 1 * & ; 3 I / , & & @ 6 F & +                                 ",
"              & { -.&.%.{ , $.G.L.K.J.C.G.G.J.L.Y.T.3 + @ + $ - @                                   ",
"              @ P ^ { 1.J.8 Q ;.H.C.H.H.C.C.M.N.-.U & + +     +                                     ",
"                ; q &.K.L.; > 3 q q b b N N 0 9 6 5 &                                               ",
"                + @ , N 8 > b S D M M M m M D K m 6 &                                               ",
"                      + + # 1 D K @.K v S K v 5 & + + @                                             ",
"                      + > T 8 & > v > O @ > q { T &                                                 ",
"                      X 9 %.{ ^ / > X X ; > I o.Q &                                                 ",
"                      X ; 9 I ^ E ; .   + @ ; @ O o                                                 ",
"                          X X o X X                                                                 "
};
