/* XPM */
static char *_2a9cc4c4e314e40c5666923e2fd80c2YCNbTMqnsEUVZ0sZ[] = {
/* columns rows colors chars-per-pixel */
"50 50 173 2 ",
"   c #363D2A",
".  c #3B3B36",
"X  c #3E3D3A",
"o  c #403F3A",
"O  c #3D4335",
"+  c #3F403C",
"@  c #414C37",
"#  c #43433D",
"$  c #444B3C",
"%  c #484D3F",
"&  c #47503C",
"*  c #4B553D",
"=  c #4B593E",
"-  c #454542",
";  c #484644",
":  c #464A44",
">  c #4A4A45",
",  c #464949",
"<  c #4C4D4A",
"1  c #504F4C",
"2  c #4C5345",
"3  c #4E5B42",
"4  c #4E514C",
"5  c #515747",
"6  c #515C44",
"7  c #52524D",
"8  c #535C4C",
"9  c #4E4F50",
"0  c #4E5150",
"q  c #545552",
"w  c #585755",
"e  c #555954",
"r  c #595B55",
"t  c #575B59",
"y  c #5B5C5A",
"u  c #605F5C",
"i  c #536046",
"p  c #586947",
"a  c #55624B",
"s  c #59624D",
"d  c #57694F",
"f  c #5B694D",
"g  c #5B704D",
"h  c #566053",
"j  c #5C6355",
"k  c #5D6B54",
"l  c #5D625C",
"z  c #5E6B5C",
"x  c #5F725D",
"c  c #616D55",
"v  c #61625E",
"b  c #626C5C",
"n  c #6A6F5E",
"m  c #637353",
"M  c #64735C",
"N  c #67795F",
"B  c #6A7A5E",
"V  c #5C5D67",
"C  c #5D5F68",
"Z  c #5D6462",
"A  c #5F6964",
"S  c #5F6369",
"D  c #5F6969",
"F  c #636563",
"G  c #686662",
"H  c #636A65",
"J  c #6A6B65",
"K  c #636569",
"L  c #646C6B",
"P  c #6A6D6B",
"I  c #706E67",
"U  c #706E6B",
"Y  c #647363",
"T  c #6C7365",
"R  c #667963",
"E  c #6C7963",
"W  c #66716C",
"Q  c #6A726D",
"!  c #667869",
"~  c #6B7A6B",
"^  c #717265",
"/  c #74746C",
"(  c #78776B",
")  c #717B6D",
"_  c #7A7C6E",
"`  c #656672",
"'  c #666D71",
"]  c #6B6E73",
"[  c #6B6D79",
"{  c #706F75",
"}  c #706F7C",
"|  c #667171",
" . c #6C7473",
".. c #6D7974",
"X. c #6E7479",
"o. c #6E7979",
"O. c #727673",
"+. c #747B74",
"@. c #7B7C75",
"#. c #72757C",
"$. c #78777D",
"%. c #747B7B",
"&. c #7A7D7B",
"*. c #807F77",
"=. c #6B815E",
"-. c #74846C",
";. c #78866C",
":. c #7B8868",
">. c #768373",
",. c #7A8275",
"<. c #7E8B74",
"1. c #76817A",
"2. c #7B827C",
"3. c #7E897D",
"4. c #828177",
"5. c #828B74",
"6. c #83847D",
"7. c #88877E",
"8. c #848B7C",
"9. c #8A8B7D",
"0. c #859473",
"q. c #86927C",
"w. c #8A927F",
"e. c #747682",
"r. c #747980",
"t. c #747A80",
"y. c #767D81",
"u. c #797E82",
"i. c #7B7F86",
"p. c #778181",
"a. c #788180",
"s. c #7A8080",
"d. c #7B8382",
"f. c #7D8389",
"g. c #828682",
"h. c #828785",
"j. c #888680",
"k. c #838880",
"l. c #868A82",
"z. c #858C83",
"x. c #828985",
"c. c #888B81",
"v. c #8A8983",
"b. c #888B87",
"n. c #8B8E85",
"m. c #8F8D84",
"M. c #8D8F87",
"N. c #828188",
"B. c #818788",
"V. c #86858D",
"C. c #828988",
"Z. c #858C8A",
"A. c #878D8A",
"S. c #8B8D89",
"D. c #888E89",
"F. c #8D8D8F",
"G. c #8D9081",
"H. c #8C9285",
"J. c #8E918A",
"K. c #919585",
"L. c #959B84",
"P. c #909188",
"I. c #94958B",
"U. c #93958C",
"Y. c #9B9C8E",
"T. c #888D90",
"R. c #919091",
"E. c #949691",
"W. c #949493",
"Q. c #969794",
"!. c #979891",
"~. c #959995",
"^. c #999A92",
/* pixels */
", < < , > > : - # > 2 : : 2 < < - - o o ; < ; o . q v v G y r % : 7 5 5 - > w 4 # # < 0 4 < q < < : ",
"Q +.4.7.8.9.7.r l E E E B B v < J / *.7.M.7.6.1 1 v.J.J.v.M.8.s m l.G.w.8.9.I.2.< O.s.s.b.J.J.M.u.0 ",
"~.Q.W.R.z.8.2.r ) >.>.-.B =.! y M.W.F.V.N.$.O.r G b.C.%...%. .7 b 2.x.3.&.+.2. .0 -.;.3.x.C.Z.C.1.e ",
"C.%.r.e.X.Q H 7 Y x ! R R R H 7 +.u.i.e.[ ` P r y %. .] X.Q H q l W  .o. .L W A q B R %.%.X.| | A 0 ",
"s. .e.e.$. .P 1 z ! ..-.+. .G 1 P #.} } ` ` ' w e | ' [ [ W H e l Z L ..t.| L Z 4 W L ' [ | | | Z 0 ",
" .L { ] ] ] G < l P T J Q J u 1 l H K G K G u < < Z H S K K F 4 0 l Z D L K F t , A A S C S K F y < ",
"r e q 4 1 1 1 ; q y r q q r q < ; < 1 q w 1 q < , < < ; - # - - : , : ; > - : - + , < < 9 9 q 0 0 0 ",
"M.b.6.v # u @.*.7.7.7.j.G v / / ^ @.7.6.u G *.h.g.h.8.2.t o M _ ,.,.&.+.t q +.+.+.O.&.&.O.0 #.l.A.J.",
"C.B.f.L - 6.^.U.I.Y.Y.U.L Q v.h.M.W.W.d.F k.p.o.%.o.o.o.Z 0 +.>.s.x.A.k.H F 3.x.s.C.x.s. .e s.T.A.A.",
" . . .l < / %.%.%.%.%.Q 7 j  .X.$.%.%.P q +.| ' e.X.o.o.l 4 | r.f.y.%.W t z >.f.%.%.y.o.K 4 o.X.X.X.",
"] ' ] l 1  .%.+.%. .W A & h L #.X.]  .G < Q  .X.e.e.o.X.e 4 L ! %.y. .W q h ..|  .` ` ` H 4  .W ] X.",
"P L P l 7 O.O.] ] P k a 2 l W X.] P P v 2 k W L ' ] ] H q 4 z f M L L H 8 a Y D S S S K l < L L L ' ",
"< < < ; < 7 < 7 w s p 3 O 6 H G y q 7 7 8 a h r e 8 5 4 < , , 2 < 7 7 7 2 5 4 < q 1 9 1 > ; 0 0 0 7 ",
"X ; y v J G J J J k f M n ^ _ @.@.@.j T >.<.2.1.-.k 2 h j Z y e 5 q 2 2 e j y e t t 9 q u l y q < < ",
"t $.U.W.U.^.^.U.M.c m G.L.K.G.H.^.m.v h.A.f.p.1.-.x a -.3.H.J.Z.5.,.e k G.L.U.U.P.g.y O.v.b.v.v.D.b.",
"t O.&.%.2.u.s.&.Q s c 2.1.+.R W  .P q ~ ~ o...! N a 3 R ~ 1.f.%. .! e b H.A.S.l.u.%.y O.o.%.y.d.u.&.",
"q Q H Q #.%.#. .H 8 j %. .~ ~ ) Y G r Q W Q L H b i 3 M R p.f.%. .P q G 2.y.f.s.%. .q P %.d.x.d.u.&.",
": z Q P  .O.O.T H q y O.T ! M H P H y L P J P L b i 2 M ! X.X.X.] J 1 F X.%.u.%.o.H q F O.&.&.2.&.+.",
"> 7 r w y r r r y 7 q l l j l y r r 7 q 7 w w q 7 > & r F F V y w q 4 r Z y V l F y < q y y j s s 6 ",
"s l v 7 $ : r y y w r r 7 7 G O.O.O.P J 7 > v I ( / / O.P w 1 < 1 ; 4 w q < q w w t < ; > $ $ 3 6 6 ",
"q.w.D.2.4 J K.M.v.H.9.8._ v U.E.Q.Q.H.G.H v W.^.^.~.J.J.D.u P 7.b.9.K.K.4.y 1.H.P.U.P.m.2.q k q.0.0.",
"3.1.1.+.4 F W L L '  .~ L G s.%.N.&.+.~ y J M.D.b.u.y.2.O.1 O.j.A.J.z.z.%.y 1.3.C.s.%.%.%.r b 2.2.1.",
"Q W W P : t D A L ` W Q H J %.X.u.x.2. .r v 2.1.+.X.y.u.P 1 P %.p.p.p.%.W q +.~ u.r.] | W 7 l R x H ",
"Q R H H : 2 ! A l H | Q b F %.L Q  . .P w v +.Q  .X.#.#.P 7 Q o.o.o.o.X.P e X.Q  .[ ' K H 7 l E N N ",
"j v k f # # 6 h h l F F r e F Z y r y r 7 r F l l F F V r < F Q ] ' P P F < A K K K K G y , 4 z j h ",
". X $ $ o o   @ $ 4 q 7 < y q < < ; 1 7 r r j r < 7 G T J I / P 7 7 y y y y y y y 9 q q q q e y r 2 ",
"# P 4.4.4.4._ b : J l.l.J.S.D.P 1 / J.m.7.6.g.+.8 j c.c.4.2.6.2.e L Z.x.<.l.z.Z.O.9 g.b.H.D.D.b.8.8.",
"4 8.J.g.2.7.g./ 4 +.H.D.D.M.W.+.w 7.x.%.P K L H r j 1. .A L | L 4 Q Z.Z.f.f.1. .Z 1 u. .X.#.y.o.o.Q ",
"7 >.Q Z L  .] Z : +.s. . .X.X.P q O.H H L L L K w b 1.Q Y |  .L < F p.2.o.X.| D y 0 %.' ` [ e.X.W L ",
"q O.Q L Q o.%.L - O.2.' ' ' o.P < v H H L P K H w t | W L L | L > y A L ' ' ` S l e o.K S ` ' L L K ",
"0 Z Z y y b H l ; Z P L L L P G ; 4 l l y r w 7 : : t w q e l y : # < q t V t e e 0 Z l t y t y t t ",
"y t 9 > > > ; - - , q w w 1 7 1 # # - # o o o # : 4 7 < - # # < 7 4 < 4 4 , : 4 , , < # - , ; ; < y ",
"U.D.v.7.P ; G ( O.@.2.6.&.q q ( *.*.4.4.J o r 6.l.G.H.v.g.F : 2.K.K.9.9.z.W l ,.,.,.>.,.8.g.y P M.P.",
"$.O.O.O.G 1 O.g.&.$. .P  .y P W.2.%.9.b.+.- Q D.d.1.2.x.2.F : 2.x.2.H %.p.| z >.>.>.1.1.p.%.y @.%. .",
"U ] P F u 1 ] %.$.[ H Z F q P 7.Q P  .L G $ J +.%.o.%.%. .r :  .o.W H  .| z h -.-.......%.P w O.P ] ",
"{ ] P K F 1 F L ] K K C F q P %.O.O. .L z * f Y o.p.f.%.+.l : H A W ..! Y a 8 x x Y D | L l 7 P P ] ",
"G L G G u 1 y F K V K F K q u  .P P P b k * 3 k Y  .X. . .r - Z H Q O.Q T a 2 d d z A Z l e < l F F ",
"< 1 > ; ; ; 1 < 1 q q w 7 > > 1 1 1 7 6 6 = * & 2 4 < < o X X - - - > < 2 $ O O O : : - - - < < < 7 ",
"q < y J U / / / U U q 1 J P / J J I F 2 E :.5.5.9.4.e . r ( ( ( J J r $ $ a 8 5 h y e - + q y F y y ",
"N.u N.!.P.P.m.m.v.*.u y P.E.U.M.2.1.O.y M.G.b.b.h.h.F , v.M.M.G.9.9.2.r r G.q.q.A.A.x.e P D.A.D.8.z.",
"P y 6.D. .{ ] L K P w v 7.2.8.1.Q A H w &. . .#.f.B.L 7 +.K  .X.' K Z 4 l x.s.%.o.o.o.4 L o.%.2.+. .",
"K q &.j.$.$.#.L F P r v ) N ~ ~ W L L 7 L H  .d.T.B.F 7 L Z ] %. .L A : l o.%.f. .W ' q l W Q W b A ",
"H q O.&.P ' K K P P r 8 B k k Y b F v < H K L  .%.Q l > l Z F L ' L l $ a A X.e.X.D L q l K A x m z ",
"r q q 8 7 q q q w 7 5 5 a a i 8 5 1 ; - 4 4 > > < ; : + - - : 4 7 > $ . O q y y y t t < 4 7 6 a 8 8 ",
"/ / @./ P > < y l y l b c f 6 k N Q T P K < # q G J P J J l : : 8 4 > : > # . > 4 q t e 0 , $ 3 k T ",
"H.U.D.b.2.9 F U.I.Y.Y.L.0.-.k <.q.I.!.v.&.e q M.9.8.v.v.j.%.> F A.l.v.P.H.+.> 4.D.H.b.G.H.8.k c H.H.",
"1.s.#. . .1  .J.k.1.d.3.>.T j 1.%.2.%.' L q 7 Q K W  .%. .F ; J 1.%.2.f.%.H < +.%.%.]  .%.1.l M s.1.",
"o.| | ' L 7 P 2.Q Q +. .| F r +. . .[ ' K 9 4 L W +.%.%.! F - F o.+.%.u. .F < L ' ' [  . . .r P 1...",
"W L L P P q y  .Q ..O. .L F q o.Q ' ] ' K q < K  .%.O. .O.H ; b L L o.%. .l < F D [ X.#.M b 7 F %. .",
"y Z Z y F < q l l G G F G y q L K Z y e w > : y l v v y y w ; r H A H Y Z y , l j F K K k j < 7 l y "
};
