/* XPM */
static char *f4e7e1cf005649c6fead9d43fc1a7558FYJAtPAvJUKzRmuI[] = {
/* columns rows colors chars-per-pixel */
"50 50 158 2 ",
"   c None",
".  c #DE8B00",
"X  c #DC9300",
"o  c #DE9900",
"O  c #E18E00",
"+  c #E49400",
"@  c #E69900",
"#  c #EA9C00",
"$  c #E5A300",
"%  c #EDA300",
"&  c #E7A800",
"*  c #EDAA00",
"=  c #F0A700",
"-  c #F3AC00",
";  c #EFB000",
":  c #F1B000",
">  c #F0B100",
",  c #F1B100",
"<  c #F2B000",
"1  c #F3B000",
"2  c #F2B100",
"3  c #F3B100",
"4  c #F3B200",
"5  c #F2B300",
"6  c #F4B000",
"7  c #F5B000",
"8  c #F5B100",
"9  c #F6B000",
"0  c #F6B100",
"q  c #F7B100",
"w  c #F4B200",
"e  c #F5B200",
"r  c #F6B200",
"t  c #F7B200",
"y  c #F6B300",
"u  c #F7B300",
"i  c #F2B400",
"p  c #F3B500",
"a  c #F4B400",
"s  c #F5B400",
"d  c #F5B500",
"f  c #F6B400",
"g  c #F7B400",
"h  c #F6B500",
"j  c #F7B500",
"k  c #F5B600",
"l  c #F6B700",
"z  c #F7B700",
"x  c #F3B200",
"c  c #F8B300",
"v  c #F8B400",
"b  c #F8B500",
"n  c #F9B500",
"m  c #F8B600",
"M  c #F9B600",
"N  c #F9B700",
"B  c #FAB700",
"V  c #F5B800",
"C  c #F6B800",
"Z  c #F6BA00",
"A  c #F7BB00",
"S  c #F7BE00",
"D  c #F6B800",
"F  c #F8B800",
"G  c #F8B900",
"H  c #F9B900",
"J  c #FAB800",
"K  c #FBB800",
"L  c #FAB900",
"P  c #FBB900",
"I  c #F8BA00",
"U  c #F8BB00",
"Y  c #F9BB00",
"T  c #FABA00",
"R  c #FBBA00",
"E  c #FABB00",
"W  c #FBBB00",
"Q  c #FCB900",
"!  c #FCBA00",
"~  c #FCBB00",
"^  c #FDBB00",
"/  c #F8BD00",
"(  c #FBBC00",
")  c #FBBD00",
"_  c #F9BF00",
"`  c #FABE00",
"'  c #FBBF00",
"]  c #FCBC00",
"[  c #FDBC00",
"{  c #FCBD00",
"}  c #FDBD00",
"|  c #FEBD00",
" . c #FCBE00",
".. c #FDBE00",
"X. c #FCBF00",
"o. c #FDBF00",
"O. c #FEBE00",
"+. c #FFBE00",
"@. c #FFBF00",
"#. c #FEBE00",
"$. c #F8C000",
"%. c #FBC100",
"&. c #F9C300",
"*. c #FBC200",
"=. c #FAC300",
"-. c #FCC000",
";. c #FDC000",
":. c #FCC100",
">. c #FFC000",
",. c #FFC100",
"<. c #FCC200",
"1. c #FDC200",
"2. c #FCC300",
"3. c #FDC300",
"4. c #FFC200",
"5. c #FFC300",
"6. c #FAC500",
"7. c #FBC600",
"8. c #FAC700",
"9. c #FBC700",
"0. c #FDC400",
"q. c #FCC500",
"w. c #FEC400",
"e. c #FFC400",
"r. c #FFC500",
"t. c #FCC600",
"y. c #FDC600",
"u. c #FCC700",
"i. c #FDC700",
"p. c #FEC600",
"a. c #FFC600",
"s. c #FEC700",
"d. c #FFC700",
"f. c #FFC100",
"g. c #FBC900",
"h. c #FDC800",
"j. c #FCC900",
"k. c #FFC800",
"l. c #FEC900",
"z. c #FFC900",
"x. c #FCCB00",
"c. c #FECA00",
"v. c #FFCA00",
"b. c #FECB00",
"n. c #FFCB00",
"m. c #FCCC00",
"M. c #FDCC00",
"N. c #FDCD00",
"B. c #FFCC00",
"V. c #FFCD00",
"C. c #FDCE00",
"Z. c #FFCE00",
"A. c #FFCF00",
"S. c #FFCA00",
"D. c #FFD000",
"F. c #FFD100",
"G. c #FFD200",
"H. c #FFD100",
/* pixels */
"                                        <.<.y.y.y.x.y.y.<.<.                                        ",
"                                  y.x.M.M.M.M.M.x.x.M.M.M.M.x.x.y.                                  ",
"                            | 6.M.M.y.<.| Q Q Q Q Q Q Q Q | <.x.M.M.y./                             ",
"                        | y.m.g.<.Q Q w - = % # # % # % = - 9 Q Q <.x.M.y./                         ",
"                      $.x.y.| Q w = # # = 9 c Q Q N Q c - = # # % - Q | y.g.$.                      ",
"                    6.x./ Y - % # - Y | <.| <.<.| | | <.| <.| Q - % % - Y | x.y.                    ",
"                Y y.<.Q c % # - Q | <.| | | | | | | | <.| | <.| | | - # % w Q <.y.Y                 ",
"              Y y./ N - # = Y | | | | | | | | | | | | | | | | | | | <.Q = # - N / g.Y               ",
"            Y 6.Y c = # c Q | | Q | | Q | | Q | | Q Y | Q | | | Q Q | | Q w # = c Y $.Y             ",
"            $.Y w = # N Q Q Q | | | Q Q Y Q | Q y.<.s Q | Q Q Y Q Q Q | | Q N # % c Y $.            ",
"          $.Y c = # N Q Q Q Q Q Y Q Q Q Q Q Q Q x.y.; Y Q Q Q Q Q Q Q Q Q Q Q N % = c Y $.          ",
"        Y Y w - # c Q Q N Q Q N Q N Q N Q Y N Y | | * N N N Q Y Q Q N Q Y Q Q N c # - w / /         ",
"      s / w - # - Q Q N N Q N Q N Q N N Q | <.<.<.<.$.| Q Y N N Q N N Q Q N Q N N - # - w / N       ",
"      / N - # = N N N N c c N N N c Q y.M.G.G.G.y.y.G.G.G.M.<.N w N N N c N c N N N - # - N V       ",
"    s V - = # w c N c c c N c c N <.G.M.x.<.<.<.| <.<.<.<.x.M.M.Y w c c c N c c N c c # - - V s     ",
"    V w - % - N c c c c c c c c <.G.y.| | | w w <.| i Y | | <.x.M.V - c c c c c c c c - # - w s     ",
"    N - = # 9 q c c c c c c w Q x.<.| <.s & & w | | & * i <.| <.y.x.- w c w c c 9 c c - # = = N     ",
"  w - = % = 9 9 - c - w 9 - c <.y.| | | & * - N <.| * - * Y | | | x.s * w c 9 c - c c c = % = c 2   ",
"  w - = # = 9 9 9 - - c - c w | <.| | / & - - c | | * - - w <.| | <.2 % - - c w - 9 - - - # = - 2   ",
"  w = % % 9 9 - c - c - - - - | | <.| <.* - - c <.| & - w - w Q Y ; $ - - c - - - 9 - w - % = = 2   ",
"- - % % = - - - - - 9 - - - 9 Q <.| | x.N - - w | | & - - - - & # % * - - - - - 9 - - - 9 = # = - * ",
"- - % # = - - - - - - - - - = Q <.| <.y.M.$.c c <.Q & * - - - - - - - - - - - - - - - - = = # = - - ",
"* - % # = - - - - - = - - = = = Q | | | y.G.G.x.<.| 2 - - - = - - - - - = - = - - - = - = = # = % - ",
"- % % # = = = = = = = = - = = = - Y <.| <.| y.x.y.x.M.x.<.Y - = = = = = - = = = = - = = = = # = = * ",
"% % % # % = = = = = = = = = = = % & - Y | <.| <.| <.y.x.M.G.M.<.- - % - * = = = = = = = = = # % % % ",
"% % # # = = = % = = = = = % = = = % % & * 2 Y | <.| <.| <.<.x.G.M.s % % % = = = = = = = = % # % % % ",
"% % # @ % = % = = % = = % = = = = = % % % @ @ * | | | | <.| | | x.M.* % = = % % = % = # % % # # % % ",
"# % % # % % % % % = # % # = % # # % % % % % % * <.| $ $ w | | <.| x.g.% % % % = % % = % % % # # % # ",
"% # # # # % % % % # % = = = # - c w % % % % # - <.| $ @ # & Q | | <.x.* # % % % # = # = % % # # % # ",
"# # # @ # % # # % % % # # # 9 x.G.G.$.% # % % - | | $ % % # - <.<.| <.- @ % # % = # # # % # # # # # ",
"# # # # # % % # % # % # # # Y x.<.y.x.* # % # - <.| @ @ # # - <.<.| <.* @ # % # % # # = # # # # # # ",
"  # # # # # # # # # # # % # N <.| | y.$.@ # # = <.| $ # # # c <.| | <.* @ # # # # # # # # @ # # #   ",
"  # # # # # # # # # # # # # % Q | <.<.x.2 # @ = | <.@ @ # % <.y.| | | o + # # # # # # # # # # # #   ",
"  # @ @ + # # # # + # # # # # c <.| | y.M.s % - | | $ # - <.x.| <.<.* X # # # # # # + # # + + # #   ",
"    @ @ # # # # # # + # # @ @ # V <.| | y.G.x.<.<.| i $.M.G.<.<.<.; X + # # # # + # # # + # # +     ",
"    # @ + + # + + # # + @ + @ @ @ - | <.| y.x.M.y.x.G.G.y.<.<./ * . o @ + @ + @ # + + # # # + #     ",
"      @ @ + # @ # + # + + @ + @ + + @ - Y / <.| <.<.<.<.| Y * o X X @ + @ + + @ # + + # + + #       ",
"      @ + + + # + + + # + @ + + @ + o X + @ % w | | * $ o X . + + @ @ + + @ @ + + + # # + + #       ",
"        + + + @ # + + + + + + + + + + + + + O # <.| o . O + + + + + + + + + + + + + + + @ +         ",
"        + + + + # + + + + + + + + + + + + + O = | | @ X + + + + + + + + + + + + + # + + + +         ",
"          + + + + + + + + + O + O + + + + O + # <./ + O + O O O + + + + + + O + # + + + +           ",
"            O O + + + # + O + O O O O O + O O O # o . O O + O O O O O + O O @ @ + O + +             ",
"              + O + O + + + O O O O O O O O O O . . O O O O O O O O O O + # @ O O O O               ",
"                O O O O + # + O O O O O O O O O . O O O O O O O O O O + @ O O O O +                 ",
"                  O O O O O + + + O O O O . O . . . O . O O O O O + + + O O O O O                   ",
"                    O O O O O + O + @ + O O . O O . O . O O O @ # + O O O O O O                     ",
"                        O O O O . O O O + + + @ @ @ @ @ + + O . O O O O O O                         ",
"                            O O O O O O O O O O O O O . O . . . O O O O                             ",
"                                . . . . . . . . . . . . . . . . . .                                 ",
"                                      . . . . . . . . . . . .                                       "
};
